<svg xmlns="http://www.w3.org/2000/svg" viewBox="0 0 540 320" font-family="'Arial Black',Arial,'Helvetica Neue',sans-serif">
  <!-- app-icon tile -->
  <rect x="150" y="40" width="240" height="180" rx="28" fill="var(--lg-ink,#0B0B0C)"/>
  <!-- JF built from tread blocks -->
  <g transform="translate(170 70)">
    <g fill="var(--lg-paper,#FFFFFF)">
      <!-- J -->
      <rect x="64" y="0" width="26" height="20" rx="2"/>
      <rect x="64" y="25" width="26" height="20" rx="2"/>
      <rect x="64" y="50" width="26" height="20" rx="2"/>
      <rect x="64" y="75" width="26" height="20" rx="2"/>
      <rect x="0" y="75" width="26" height="20" rx="2"/>
      <rect x="0" y="100" width="26" height="20" rx="2"/>
      <rect x="32" y="100" width="26" height="20" rx="2"/>
      <rect x="64" y="100" width="26" height="20" rx="2"/>
      <!-- F -->
      <rect x="110" y="0" width="26" height="20" rx="2"/>
      <rect x="110" y="25" width="26" height="20" rx="2"/>
      <rect x="110" y="50" width="26" height="20" rx="2"/>
      <rect x="110" y="75" width="26" height="20" rx="2"/>
      <rect x="110" y="100" width="26" height="20" rx="2"/>
      <rect x="142" y="0" width="26" height="20" rx="2"/>
      <rect x="142" y="50" width="26" height="20" rx="2"/>
    </g>
    <rect x="174" y="0" width="26" height="20" rx="2" fill="var(--lg-red,#C8102E)"/>
  </g>
  <text x="270" y="270" text-anchor="middle" font-size="22" font-weight="900" letter-spacing="6" fill="var(--lg-ink,#0B0B0C)">JF&#160;TIRE</text>
  <text x="271" y="298" text-anchor="middle" font-family="Arial,sans-serif" font-size="11" font-weight="700" letter-spacing="3" fill="var(--lg-ink,#0B0B0C)">COMMERCIAL TRUCK TIRES</text>
</svg>
