<svg xmlns="http://www.w3.org/2000/svg" viewBox="0 0 420 420" font-family="Arial,'Helvetica Neue',sans-serif">
<circle cx="210" cy="210" r="180" fill="none" stroke="var(--lg-ink,#0B0B0C)" stroke-width="10"/>
<circle cx="210" cy="210" r="180" fill="none" stroke="var(--lg-red,#C8102E)" stroke-width="10" pathLength="100" stroke-dasharray="8 92" transform="rotate(-104 210 210)"/>
<circle cx="210" cy="210" r="180" fill="none" stroke="var(--lg-red,#C8102E)" stroke-width="10" pathLength="100" stroke-dasharray="8 92" transform="rotate(58 210 210)"/>
<g transform="translate(169.0 118) scale(0.2)"><g transform="skewX(-14)"><rect x="38.0" y="0" width="26" height="100" fill="var(--lg-ink,#0B0B0C)"/><rect x="0.0" y="74" width="64" height="26" fill="var(--lg-ink,#0B0B0C)"/><rect x="0.0" y="58" width="26" height="16" fill="var(--lg-ink,#0B0B0C)"/><rect x="80.0" y="0" width="26" height="100" fill="var(--lg-ink,#0B0B0C)"/><rect x="80.0" y="0" width="64" height="26" fill="var(--lg-ink,#0B0B0C)"/><rect x="106.0" y="40" width="32" height="26" fill="var(--lg-ink,#0B0B0C)"/><rect x="174.0" y="0" width="64" height="26" fill="var(--lg-ink,#0B0B0C)"/><rect x="193.0" y="0" width="26" height="100" fill="var(--lg-ink,#0B0B0C)"/><rect x="254.0" y="0" width="26" height="100" fill="var(--lg-ink,#0B0B0C)"/><rect x="296.0" y="0" width="26" height="100" fill="var(--lg-ink,#0B0B0C)"/><rect x="296.0" y="0" width="64" height="24" fill="var(--lg-ink,#0B0B0C)"/><rect x="340.0" y="0" width="20" height="60" fill="var(--lg-ink,#0B0B0C)"/><rect x="296.0" y="36" width="64" height="24" fill="var(--lg-ink,#0B0B0C)"/><path d="M330.0 60 L350.0 60 L360.0 100 L340.0 100 Z" fill="var(--lg-ink,#0B0B0C)"/><rect x="376.0" y="0" width="26" height="100" fill="var(--lg-ink,#0B0B0C)"/><rect x="376.0" y="0" width="64" height="26" fill="var(--lg-ink,#0B0B0C)"/><rect x="402.0" y="40" width="32" height="26" fill="var(--lg-ink,#0B0B0C)"/><rect x="376.0" y="74" width="64" height="26" fill="var(--lg-ink,#0B0B0C)"/></g></g>
<g transform="translate(111.0 165) scale(0.75)"><g transform="skewX(-14)"><rect x="0.0" y="0" width="64" height="24" fill="var(--lg-ink,#0B0B0C)"/><rect x="40.0" y="12" width="24" height="38" fill="var(--lg-ink,#0B0B0C)"/><rect x="0.0" y="38" width="64" height="24" fill="var(--lg-ink,#0B0B0C)"/><rect x="0.0" y="50" width="24" height="38" fill="var(--lg-ink,#0B0B0C)"/><rect x="0.0" y="76" width="64" height="24" fill="var(--lg-ink,#0B0B0C)"/><rect x="80.0" y="0" width="26" height="62" fill="var(--lg-ink,#0B0B0C)"/><rect x="80.0" y="38" width="64" height="24" fill="var(--lg-ink,#0B0B0C)"/><rect x="118.0" y="0" width="26" height="100" fill="var(--lg-ink,#0B0B0C)"/><path d="M186.0 0 L212.0 0 L194.0 40 L210.0 40 L168.0 100 L182.0 54 L166.0 54 Z" fill="var(--lg-red,#C8102E)"/><rect x="224.0" y="0" width="64" height="26" fill="var(--lg-ink,#0B0B0C)"/><path d="M262.0 26 L288.0 26 L258.0 100 L232.0 100 Z" fill="var(--lg-ink,#0B0B0C)"/></g></g>
<text x="212" y="292" text-anchor="middle" font-size="13" font-weight="700" letter-spacing="4" fill="var(--lg-ink,#0B0B0C)">ROADSIDE TIRE SERVICE</text>
</svg>
